<svg xmlns="http://www.w3.org/2000/svg" xmlns:xlink="http://www.w3.org/1999/xlink" version="1.1" width="256" height="256" viewBox="0 0 256 256" xml:space="preserve">

<defs>
</defs>
<g style="stroke: none; stroke-width: 0; stroke-dasharray: none; stroke-linecap: butt; stroke-linejoin: miter; stroke-miterlimit: 10; fill: none; fill-rule: nonzero; opacity: 1;" transform="translate(1.4065934065934016 1.4065934065934016) scale(2.81 2.81)" >
	<path d="M 83.786 14.441 L 83.786 14.441 c -0.266 0 -0.52 -0.105 -0.707 -0.293 l -6.873 -6.873 c -0.391 -0.391 -0.391 -1.023 0 -1.414 l 3.437 -3.437 c 1.106 -1.107 2.578 -1.716 4.144 -1.716 s 3.037 0.609 4.144 1.716 c 1.107 1.106 1.717 2.578 1.717 4.144 c 0 1.566 -0.609 3.038 -1.717 4.144 l -3.437 3.437 C 84.306 14.335 84.052 14.441 83.786 14.441 z M 78.327 6.568 l 4.819 4.819 l 0 0 l 0.64 0.64 l 2.729 -2.729 c 0.729 -0.729 1.131 -1.699 1.131 -2.73 c 0 -1.031 -0.401 -2 -1.131 -2.729 c -1.457 -1.458 -4.002 -1.458 -5.459 0 L 78.327 6.568 z" style="stroke: none; stroke-width: 1; stroke-dasharray: none; stroke-linecap: butt; stroke-linejoin: miter; stroke-miterlimit: 10; fill: rgb(242,60,48); fill-rule: nonzero; opacity: 1;" transform=" matrix(1 0 0 1 0 0) " stroke-linecap="round" />
	<path d="M 68.835 27.385 l -5.866 -5.866 c -0.391 -0.391 -1.023 -0.391 -1.414 0 l -8.565 8.565 c -4.857 4.857 -11.281 8.049 -18.087 8.987 c -7.234 0.997 -14.063 4.39 -19.228 9.554 L 0.647 63.654 c -0.391 0.391 -0.391 1.023 0 1.414 l 24.639 24.639 C 25.473 89.895 25.728 90 25.993 90 s 0.52 -0.105 0.707 -0.293 l 15.028 -15.028 c 5.164 -5.164 8.558 -11.993 9.555 -19.228 c 0.938 -6.806 4.129 -13.229 8.987 -18.087 l 8.565 -8.565 c 0.188 -0.188 0.293 -0.442 0.293 -0.707 S 69.022 27.572 68.835 27.385 z M 58.855 35.95 c -5.165 5.165 -8.558 11.993 -9.554 19.228 c -0.938 6.806 -4.13 13.229 -8.988 18.087 L 25.993 87.586 L 2.768 64.361 L 17.089 50.04 c 4.858 -4.858 11.282 -8.049 18.087 -8.987 c 7.235 -0.997 14.063 -4.391 19.228 -9.555 l 2.55 -2.55 l 4.452 4.452 L 58.855 35.95 z M 62.819 31.986 l -4.452 -4.452 l 3.895 -3.895 l 4.452 4.452 L 62.819 31.986 z" style="stroke: none; stroke-width: 1; stroke-dasharray: none; stroke-linecap: butt; stroke-linejoin: miter; stroke-miterlimit: 10; fill: rgb(242,60,48); fill-rule: nonzero; opacity: 1;" transform=" matrix(1 0 0 1 0 0) " stroke-linecap="round" />
	<path d="M 68.499 22.855 c -0.256 0 -0.512 -0.098 -0.707 -0.293 c -0.391 -0.391 -0.391 -1.023 0 -1.414 l 8.168 -8.168 c 0.391 -0.391 1.023 -0.391 1.414 0 s 0.391 1.023 0 1.414 l -8.168 8.168 C 69.011 22.757 68.755 22.855 68.499 22.855 z" style="stroke: none; stroke-width: 1; stroke-dasharray: none; stroke-linecap: butt; stroke-linejoin: miter; stroke-miterlimit: 10; fill: rgb(242,60,48); fill-rule: nonzero; opacity: 1;" transform=" matrix(1 0 0 1 0 0) " stroke-linecap="round" />
	<path d="M 71.4 25.82 c -0.346 0 -0.683 -0.18 -0.867 -0.5 c -0.276 -0.479 -0.111 -1.09 0.367 -1.366 l 7.955 -4.585 c 0.479 -0.277 1.09 -0.111 1.365 0.367 c 0.276 0.479 0.111 1.09 -0.367 1.366 l -7.955 4.585 C 71.741 25.777 71.569 25.82 71.4 25.82 z" style="stroke: none; stroke-width: 1; stroke-dasharray: none; stroke-linecap: butt; stroke-linejoin: miter; stroke-miterlimit: 10; fill: rgb(242,60,48); fill-rule: nonzero; opacity: 1;" transform=" matrix(1 0 0 1 0 0) " stroke-linecap="round" />
	<path d="M 65.517 19.97 c -0.169 0 -0.341 -0.043 -0.498 -0.134 c -0.479 -0.276 -0.644 -0.887 -0.367 -1.366 l 4.586 -7.955 c 0.274 -0.478 0.886 -0.644 1.365 -0.367 c 0.479 0.276 0.644 0.887 0.367 1.366 l -4.586 7.955 C 66.199 19.791 65.862 19.97 65.517 19.97 z" style="stroke: none; stroke-width: 1; stroke-dasharray: none; stroke-linecap: butt; stroke-linejoin: miter; stroke-miterlimit: 10; fill: rgb(242,60,48); fill-rule: nonzero; opacity: 1;" transform=" matrix(1 0 0 1 0 0) " stroke-linecap="round" />
	<path d="M 49.698 17.806 c -0.052 0 -0.104 -0.004 -0.156 -0.012 c -0.376 -0.06 -0.686 -0.328 -0.799 -0.691 l -1.502 -4.833 l -4.833 -1.502 c -0.363 -0.113 -0.631 -0.423 -0.691 -0.799 s 0.1 -0.753 0.411 -0.973 l 4.132 -2.922 l -0.064 -5.061 c -0.005 -0.38 0.207 -0.731 0.546 -0.904 c 0.34 -0.172 0.747 -0.139 1.052 0.09 l 4.057 3.027 L 56.642 1.6 c 0.361 -0.123 0.76 -0.029 1.028 0.24 c 0.27 0.269 0.362 0.667 0.24 1.028 l -1.625 4.792 l 3.027 4.056 c 0.228 0.305 0.262 0.713 0.089 1.052 c -0.173 0.338 -0.555 0.538 -0.903 0.546 l -5.062 -0.064 l -2.922 4.132 C 50.325 17.65 50.02 17.806 49.698 17.806 z M 44.937 9.458 l 3.4 1.057 c 0.314 0.098 0.561 0.344 0.658 0.658 l 1.057 3.4 l 2.056 -2.907 c 0.189 -0.269 0.502 -0.401 0.829 -0.423 l 3.561 0.045 l -2.13 -2.854 c -0.196 -0.264 -0.251 -0.607 -0.146 -0.919 l 1.144 -3.372 l -3.371 1.144 c -0.313 0.104 -0.657 0.05 -0.919 -0.146 l -2.854 -2.129 l 0.046 3.561 c 0.004 0.329 -0.154 0.639 -0.423 0.829 L 44.937 9.458 z" style="stroke: none; stroke-width: 1; stroke-dasharray: none; stroke-linecap: butt; stroke-linejoin: miter; stroke-miterlimit: 10; fill: rgb(242,60,48); fill-rule: nonzero; opacity: 1;" transform=" matrix(1 0 0 1 0 0) " stroke-linecap="round" />
	<path d="M 71.842 57.349 c -0.052 0 -0.104 -0.004 -0.156 -0.013 c -0.376 -0.06 -0.686 -0.327 -0.799 -0.69 l -1.502 -4.833 l -4.833 -1.503 c -0.363 -0.113 -0.631 -0.423 -0.69 -0.799 s 0.1 -0.753 0.41 -0.973 l 4.132 -2.922 l -0.064 -5.061 c -0.005 -0.38 0.207 -0.731 0.546 -0.904 c 0.34 -0.172 0.748 -0.139 1.052 0.09 l 4.057 3.027 l 4.793 -1.625 c 0.362 -0.124 0.76 -0.03 1.028 0.24 c 0.27 0.269 0.362 0.667 0.24 1.028 l -1.625 4.793 l 3.026 4.057 c 0.228 0.305 0.262 0.713 0.089 1.052 s -0.523 0.503 -0.903 0.546 l -5.061 -0.064 l -2.923 4.132 C 72.469 57.193 72.163 57.349 71.842 57.349 z M 67.08 49.001 l 3.4 1.058 c 0.314 0.098 0.561 0.344 0.658 0.658 l 1.057 3.4 l 2.057 -2.907 c 0.189 -0.269 0.506 -0.405 0.829 -0.423 l 3.561 0.046 l -2.13 -2.854 c -0.196 -0.264 -0.251 -0.607 -0.146 -0.919 l 1.144 -3.372 l -3.372 1.144 c -0.312 0.105 -0.656 0.052 -0.919 -0.146 l -2.854 -2.129 l 0.046 3.56 c 0.004 0.329 -0.154 0.639 -0.423 0.829 L 67.08 49.001 z" style="stroke: none; stroke-width: 1; stroke-dasharray: none; stroke-linecap: butt; stroke-linejoin: miter; stroke-miterlimit: 10; fill: rgb(242,60,48); fill-rule: nonzero; opacity: 1;" transform=" matrix(1 0 0 1 0 0) " stroke-linecap="round" />
	<path d="M 27.768 77.967 c -0.256 0 -0.512 -0.098 -0.707 -0.293 L 12.68 63.293 c -0.391 -0.391 -0.391 -1.023 0 -1.414 l 8.93 -8.931 c 0.375 -0.375 1.039 -0.375 1.414 0 L 37.405 67.33 c 0.188 0.188 0.293 0.441 0.293 0.707 s -0.105 0.52 -0.293 0.707 l -8.93 8.93 C 28.28 77.869 28.024 77.967 27.768 77.967 z M 14.801 62.586 l 12.967 12.967 l 7.516 -7.516 L 22.317 55.069 L 14.801 62.586 z" style="stroke: none; stroke-width: 1; stroke-dasharray: none; stroke-linecap: butt; stroke-linejoin: miter; stroke-miterlimit: 10; fill: rgb(242,60,48); fill-rule: nonzero; opacity: 1;" transform=" matrix(1 0 0 1 0 0) " stroke-linecap="round" />
</g>
</svg>