<svg xmlns="http://www.w3.org/2000/svg" xmlns:xlink="http://www.w3.org/1999/xlink" version="1.1" width="256" height="256" viewBox="0 0 256 256" xml:space="preserve">

<defs>
</defs>
<g style="stroke: none; stroke-width: 0; stroke-dasharray: none; stroke-linecap: butt; stroke-linejoin: miter; stroke-miterlimit: 10; fill: none; fill-rule: nonzero; opacity: 1;" transform="translate(1.4065934065934016 1.4065934065934016) scale(2.81 2.81)" >
	<path d="M 24.661 46.02 c -1.985 0 -3.954 -0.479 -5.764 -1.424 c -2.956 -1.544 -5.134 -4.146 -6.133 -7.328 c -0.999 -3.182 -0.699 -6.562 0.845 -9.518 s 4.146 -5.134 7.328 -6.133 c 6.569 -2.061 13.589 1.604 15.651 8.172 c 2.062 6.568 -1.604 13.589 -8.172 15.651 C 27.181 45.828 25.917 46.02 24.661 46.02 z M 24.669 23.043 c -1.038 0 -2.093 0.155 -3.134 0.482 c -2.672 0.839 -4.857 2.668 -6.154 5.15 s -1.548 5.322 -0.709 7.994 c 0.839 2.672 2.668 4.857 5.15 6.154 c 2.482 1.296 5.322 1.549 7.994 0.709 c 5.516 -1.732 8.595 -7.628 6.863 -13.144 C 33.274 25.914 29.129 23.043 24.669 23.043 z" style="stroke: none; stroke-width: 1; stroke-dasharray: none; stroke-linecap: butt; stroke-linejoin: miter; stroke-miterlimit: 10; fill: rgb(242,60,48); fill-rule: nonzero; opacity: 1;" transform=" matrix(1 0 0 1 0 0) " stroke-linecap="round" />
	<path d="M 88.348 29.191 l -8.943 -28.49 c -0.094 -0.299 -0.322 -0.537 -0.617 -0.642 c -0.296 -0.106 -0.623 -0.066 -0.884 0.104 l -8.737 5.71 l -34.456 6.902 c -5.315 -2.573 -11.32 -3.021 -16.944 -1.254 C 5.632 15.331 -1.142 28.303 2.667 40.438 c 1.845 5.879 5.869 10.687 11.331 13.538 c 2.772 1.448 5.748 2.294 8.773 2.544 l 13.251 28.418 C 37.509 88.124 40.679 90 43.984 90 c 1.239 0 2.497 -0.264 3.692 -0.821 c 2.114 -0.986 3.722 -2.744 4.524 -4.951 c 0.804 -2.207 0.703 -4.587 -0.283 -6.702 l -1.92 -4.117 c 0 0 0 0 0 0 L 48 69.127 L 39.594 51.1 c 2.057 -1.752 3.82 -3.857 5.177 -6.276 l 32.22 -14.028 l 10.432 -0.307 c 0.313 -0.009 0.603 -0.165 0.785 -0.419 C 88.39 29.815 88.442 29.489 88.348 29.191 z M 47.761 73.348 l -1.443 0.673 c -1.012 0.472 -2.145 0.521 -3.193 0.14 c -1.048 -0.382 -1.885 -1.148 -2.357 -2.16 c -0.472 -1.011 -0.521 -2.145 -0.14 -3.194 c 0.382 -1.048 1.148 -1.885 2.16 -2.356 l 1.442 -0.673 L 47.761 73.348 z M 43.386 63.964 l -1.442 0.673 c -1.496 0.697 -2.63 1.934 -3.194 3.485 c -0.564 1.551 -0.491 3.227 0.207 4.723 c 0.697 1.495 1.935 2.629 3.485 3.193 c 0.689 0.251 1.404 0.376 2.117 0.376 c 0.89 0 1.776 -0.194 2.605 -0.582 l 1.444 -0.673 l 1.498 3.212 c 0.761 1.631 0.837 3.467 0.217 5.172 c -0.62 1.705 -1.86 3.062 -3.491 3.823 c -3.381 1.574 -7.418 0.108 -8.995 -3.274 L 25.012 56.593 c 2.202 -0.035 4.411 -0.378 6.571 -1.056 c 2.315 -0.726 4.455 -1.814 6.389 -3.18 L 43.386 63.964 z M 43.661 43.127 c -0.205 0.089 -0.374 0.244 -0.479 0.44 c -2.627 4.844 -6.958 8.418 -12.196 10.062 c -5.368 1.685 -11.073 1.181 -16.061 -1.425 c -4.988 -2.605 -8.663 -6.996 -10.348 -12.365 C 2.89 34.47 3.396 28.766 6.001 23.778 c 2.605 -4.988 6.996 -8.663 12.365 -10.349 c 2.066 -0.648 4.187 -0.97 6.301 -0.97 c 3.246 0 6.476 0.759 9.458 2.257 c 0.199 0.1 0.426 0.132 0.645 0.087 l 34.097 -6.83 l 2.409 7.674 l 4.268 13.597 L 43.661 43.127 z M 77.496 28.781 l -4.5 -14.332 l -2.264 -7.21 l 7.16 -4.679 l 8.152 25.97 L 77.496 28.781 z" style="stroke: none; stroke-width: 1; stroke-dasharray: none; stroke-linecap: butt; stroke-linejoin: miter; stroke-miterlimit: 10; fill: rgb(242,60,48); fill-rule: nonzero; opacity: 1;" transform=" matrix(1 0 0 1 0 0) " stroke-linecap="round" />
	<path d="M 19.196 36.249 c -0.425 0 -0.819 -0.274 -0.954 -0.701 c -0.166 -0.527 0.127 -1.088 0.655 -1.253 l 10.958 -3.44 c 0.525 -0.164 1.087 0.127 1.253 0.655 c 0.166 0.527 -0.127 1.088 -0.655 1.253 l -10.958 3.44 C 19.396 36.234 19.296 36.249 19.196 36.249 z" style="stroke: none; stroke-width: 1; stroke-dasharray: none; stroke-linecap: butt; stroke-linejoin: miter; stroke-miterlimit: 10; fill: rgb(242,60,48); fill-rule: nonzero; opacity: 1;" transform=" matrix(1 0 0 1 0 0) " stroke-linecap="round" />
	<path d="M 23.655 40.868 c -0.425 0 -0.819 -0.274 -0.954 -0.701 c -0.166 -0.527 0.128 -1.088 0.655 -1.253 l 5.479 -1.72 c 0.523 -0.166 1.087 0.127 1.253 0.655 c 0.166 0.527 -0.128 1.088 -0.655 1.253 l -5.479 1.72 C 23.855 40.853 23.755 40.868 23.655 40.868 z" style="stroke: none; stroke-width: 1; stroke-dasharray: none; stroke-linecap: butt; stroke-linejoin: miter; stroke-miterlimit: 10; fill: rgb(242,60,48); fill-rule: nonzero; opacity: 1;" transform=" matrix(1 0 0 1 0 0) " stroke-linecap="round" />
	<path d="M 20.215 29.911 c -0.425 0 -0.819 -0.274 -0.954 -0.701 c -0.166 -0.527 0.128 -1.088 0.655 -1.253 l 5.479 -1.72 c 0.525 -0.164 1.087 0.127 1.253 0.655 c 0.166 0.527 -0.128 1.088 -0.655 1.253 l -5.479 1.72 C 20.416 29.896 20.315 29.911 20.215 29.911 z" style="stroke: none; stroke-width: 1; stroke-dasharray: none; stroke-linecap: butt; stroke-linejoin: miter; stroke-miterlimit: 10; fill: rgb(242,60,48); fill-rule: nonzero; opacity: 1;" transform=" matrix(1 0 0 1 0 0) " stroke-linecap="round" />
</g>
</svg>