<svg xmlns="http://www.w3.org/2000/svg" xmlns:xlink="http://www.w3.org/1999/xlink" version="1.1" width="256" height="256" viewBox="0 0 256 256" xml:space="preserve">

<defs>
</defs>
<g style="stroke: none; stroke-width: 0; stroke-dasharray: none; stroke-linecap: butt; stroke-linejoin: miter; stroke-miterlimit: 10; fill: none; fill-rule: nonzero; opacity: 1;" transform="translate(1.4065934065934016 1.4065934065934016) scale(2.81 2.81)" >
	<path d="M 77.567 11.327 c 0.301 -0.28 0.399 -0.715 0.249 -1.098 s -0.52 -0.634 -0.931 -0.634 H 66.137 l 4.264 -3.653 c 0.678 0.509 1.441 0.785 2.164 0.785 c 0.619 0 1.206 -0.196 1.682 -0.602 v 0 c 1.242 -1.064 1.175 -3.112 -0.152 -4.662 c -0.595 -0.695 -1.365 -1.183 -2.168 -1.375 c -0.908 -0.216 -1.786 -0.03 -2.415 0.508 c -0.63 0.539 -0.948 1.38 -0.873 2.309 c 0.041 0.514 0.21 1.028 0.467 1.515 l -6.041 5.176 H 13.115 c -0.411 0 -0.78 0.251 -0.931 0.634 c -0.15 0.382 -0.052 0.818 0.249 1.098 l 29.51 27.496 v 38.171 l -12.1 11.275 c -0.301 0.28 -0.399 0.716 -0.249 1.098 c 0.151 0.383 0.52 0.634 0.931 0.634 h 28.95 c 0.411 0 0.78 -0.251 0.931 -0.634 c 0.15 -0.382 0.052 -0.817 -0.249 -1.098 l -12.1 -11.275 V 38.823 L 77.567 11.327 z M 70.812 2.116 C 70.916 2.026 71.058 2 71.187 2 c 0.112 0 0.214 0.019 0.274 0.034 c 0.39 0.093 0.796 0.359 1.113 0.73 c 0.611 0.713 0.699 1.561 0.371 1.842 c -0.331 0.28 -1.153 0.064 -1.764 -0.648 c -0.318 -0.371 -0.519 -0.813 -0.551 -1.213 C 70.62 2.612 70.617 2.283 70.812 2.116 z M 74.345 11.596 l -7.33 6.83 h -10.54 c -0.071 -0.119 -0.157 -0.233 -0.236 -0.351 l 7.563 -6.479 H 74.345 z M 54.787 23.984 c -1.244 1.066 -3.651 0.39 -5.252 -1.48 c 0 0 0 -0.001 -0.001 -0.001 c 0 0 -0.001 0 -0.001 -0.001 c -0.827 -0.965 -1.329 -2.091 -1.416 -3.171 c -0.077 -0.962 0.192 -1.759 0.76 -2.245 c 0.393 -0.336 0.91 -0.509 1.504 -0.509 c 0.264 0 0.542 0.034 0.831 0.103 c 1.055 0.252 2.091 0.922 2.917 1.887 C 55.731 20.436 56.032 22.916 54.787 23.984 z M 60.729 11.596 l -5.786 4.957 c -0.971 -0.897 -2.099 -1.54 -3.267 -1.819 c -1.58 -0.376 -3.034 -0.081 -4.1 0.833 c -0.824 0.705 -1.314 1.699 -1.437 2.859 H 22.985 l -7.33 -6.83 H 60.729 z M 25.131 20.425 h 21.152 c 0.203 0.888 0.59 1.76 1.136 2.572 l -1.953 1.673 c -0.419 0.359 -0.468 0.991 -0.108 1.41 c 0.198 0.23 0.478 0.349 0.759 0.349 c 0.23 0 0.462 -0.079 0.65 -0.241 l 1.947 -1.668 c 1.381 1.272 3.052 1.959 4.582 1.959 c 1.043 0 2.02 -0.316 2.791 -0.978 c 1.355 -1.161 1.742 -3.107 1.229 -5.077 h 7.551 L 46.663 37.388 h -3.326 L 25.131 20.425 z M 56.935 88.001 H 33.065 l 10.56 -9.839 c 0.203 -0.189 0.318 -0.454 0.318 -0.731 V 39.388 h 2.113 V 77.43 c 0 0.277 0.115 0.542 0.318 0.731 L 56.935 88.001 z" style="stroke: none; stroke-width: 1; stroke-dasharray: none; stroke-linecap: butt; stroke-linejoin: miter; stroke-miterlimit: 10; fill: rgb(242,60,48); fill-rule: nonzero; opacity: 1;" transform=" matrix(1 0 0 1 0 0) " stroke-linecap="round" />
</g>
</svg>