<svg xmlns="http://www.w3.org/2000/svg" xmlns:xlink="http://www.w3.org/1999/xlink" version="1.1" width="256" height="256" viewBox="0 0 256 256" xml:space="preserve">

<defs>
</defs>
<g style="stroke: none; stroke-width: 0; stroke-dasharray: none; stroke-linecap: butt; stroke-linejoin: miter; stroke-miterlimit: 10; fill: none; fill-rule: nonzero; opacity: 1;" transform="translate(1.4065934065934016 1.4065934065934016) scale(2.81 2.81)" >
	<path d="M 86.718 43.359 c -0.713 -0.266 -1.287 -0.756 -1.66 -1.417 c -1.069 -1.894 -2.723 -2.782 -5.362 -2.88 c -7.946 -0.295 -14.469 -0.404 -20.237 -0.312 L 41.078 27.586 c -0.793 -0.482 -1.703 -0.737 -2.631 -0.737 h -2.974 c -0.88 0 -1.642 0.503 -1.987 1.313 c -0.34 0.798 -0.172 1.717 0.433 2.347 l 8.974 9.247 c -1.669 0.188 -3.331 0.399 -5.008 0.641 c -0.946 0.135 -1.928 -0.188 -2.621 -0.868 l -4.852 -4.767 c -0.859 -0.853 -1.999 -1.322 -3.209 -1.322 h -1.324 c -0.568 0 -1.091 0.259 -1.435 0.71 c -0.344 0.451 -0.455 1.024 -0.313 1.54 l 2.256 9.405 l -2.299 4.031 c -0.32 0.416 -0.396 0.975 -0.187 1.465 c 0.23 0.539 0.757 0.887 1.343 0.887 h 1.178 c 0.479 0 0.948 -0.131 1.356 -0.38 l 4.736 -2.876 c 3.808 0.882 7.333 1.443 10.432 1.86 l -9.031 9.41 c -0.601 0.625 -0.769 1.545 -0.429 2.343 s 1.12 1.313 1.987 1.313 h 2.974 c 0.929 0 1.838 -0.255 2.631 -0.736 l 18.179 -11.041 h 26.18 c 0.094 0 0.185 -0.013 0.271 -0.037 C 89.562 50.993 90 48.36 90 47.185 C 90 45.263 88.232 43.922 86.718 43.359 z M 35.357 29.121 c -0.021 -0.021 -0.074 -0.077 -0.032 -0.174 c 0.042 -0.097 0.119 -0.097 0.147 -0.097 h 2.974 c 0.562 0 1.113 0.154 1.593 0.446 l 15.712 9.543 c -3.657 0.122 -7.035 0.34 -10.327 0.656 L 35.357 29.121 z M 84.837 49.373 H 62.55 l 2.74 -1.664 c 0.472 -0.286 0.622 -0.901 0.335 -1.374 c -0.285 -0.471 -0.897 -0.622 -1.374 -0.335 L 40.04 60.705 c -0.48 0.291 -1.031 0.445 -1.593 0.445 h -2.974 c -0.029 0 -0.106 0 -0.147 -0.098 s 0.012 -0.152 0.032 -0.174 l 12.796 -13.332 c 0.382 -0.398 0.369 -1.031 -0.029 -1.414 c -0.397 -0.383 -1.031 -0.37 -1.414 0.029 l -2.045 2.131 c -3.485 -0.443 -7.602 -1.045 -12.094 -2.107 c -0.031 -0.007 -0.061 0.002 -0.092 -0.003 c -0.099 -0.014 -0.198 -0.024 -0.298 -0.008 c -0.064 0.011 -0.12 0.043 -0.18 0.065 c -0.06 0.022 -0.123 0.03 -0.179 0.065 l -5.083 3.086 c -0.096 0.058 -0.206 0.089 -0.318 0.089 h -0.232 l 2.13 -3.735 c 0.126 -0.221 0.163 -0.481 0.104 -0.729 l -2.297 -9.573 h 1.075 c 0.679 0 1.319 0.263 1.805 0.745 l 4.855 4.77 c 1.134 1.115 2.749 1.645 4.308 1.42 c 11.632 -1.677 22.479 -2.022 41.451 -1.317 c 1.917 0.071 2.987 0.611 3.694 1.865 c 0.6 1.063 1.561 1.882 2.705 2.308 C 87.167 45.66 88 46.481 88 47.185 C 88 47.783 88 49.373 84.837 49.373 z" style="stroke: none; stroke-width: 1; stroke-dasharray: none; stroke-linecap: butt; stroke-linejoin: miter; stroke-miterlimit: 10; fill: rgb(242,60,48); fill-rule: nonzero; opacity: 1;" transform=" matrix(1 0 0 1 0 0) " stroke-linecap="round" />
	<path d="M 25.862 28.85 H 1 c -0.552 0 -1 -0.448 -1 -1 s 0.448 -1 1 -1 h 24.862 c 0.552 0 1 0.448 1 1 S 26.414 28.85 25.862 28.85 z" style="stroke: none; stroke-width: 1; stroke-dasharray: none; stroke-linecap: butt; stroke-linejoin: miter; stroke-miterlimit: 10; fill: rgb(242,60,48); fill-rule: nonzero; opacity: 1;" transform=" matrix(1 0 0 1 0 0) " stroke-linecap="round" />
	<path d="M 25.862 63.15 H 1 c -0.552 0 -1 -0.447 -1 -1 s 0.448 -1 1 -1 h 24.862 c 0.552 0 1 0.447 1 1 S 26.414 63.15 25.862 63.15 z" style="stroke: none; stroke-width: 1; stroke-dasharray: none; stroke-linecap: butt; stroke-linejoin: miter; stroke-miterlimit: 10; fill: rgb(242,60,48); fill-rule: nonzero; opacity: 1;" transform=" matrix(1 0 0 1 0 0) " stroke-linecap="round" />
	<path d="M 16.909 45.999 H 1 c -0.552 0 -1 -0.448 -1 -1 s 0.448 -1 1 -1 h 15.909 c 0.552 0 1 0.448 1 1 S 17.461 45.999 16.909 45.999 z" style="stroke: none; stroke-width: 1; stroke-dasharray: none; stroke-linecap: butt; stroke-linejoin: miter; stroke-miterlimit: 10; fill: rgb(242,60,48); fill-rule: nonzero; opacity: 1;" transform=" matrix(1 0 0 1 0 0) " stroke-linecap="round" />
	<path d="M 16.909 37.242 H 1 c -0.552 0 -1 -0.448 -1 -1 s 0.448 -1 1 -1 h 15.909 c 0.552 0 1 0.448 1 1 S 17.461 37.242 16.909 37.242 z" style="stroke: none; stroke-width: 1; stroke-dasharray: none; stroke-linecap: butt; stroke-linejoin: miter; stroke-miterlimit: 10; fill: rgb(242,60,48); fill-rule: nonzero; opacity: 1;" transform=" matrix(1 0 0 1 0 0) " stroke-linecap="round" />
	<path d="M 19.608 54.756 H 1 c -0.552 0 -1 -0.447 -1 -1 s 0.448 -1 1 -1 h 18.608 c 0.552 0 1 0.447 1 1 S 20.16 54.756 19.608 54.756 z" style="stroke: none; stroke-width: 1; stroke-dasharray: none; stroke-linecap: butt; stroke-linejoin: miter; stroke-miterlimit: 10; fill: rgb(242,60,48); fill-rule: nonzero; opacity: 1;" transform=" matrix(1 0 0 1 0 0) " stroke-linecap="round" />
</g>
</svg>